# xmcd
#
# Track frame offsets:
#	150
#	10284
#	20947
#	33537
#	44173
#	54630
#	64849
#	75097
#	85642
#	94008
#	103347
#	110314
#	116119
#	127707
#	133450
#	142227
#	149541
#	158583
#	166150
#	176013
#	181356
#
# Disc length: 2599 seconds
#
# Revision: 1
# Processed by: cddbd v1.5.1PL0 Copyright (c) Steve Scherf et al.
# Submitted via: EasyCDDAExtractor 7.5.2.1
#
DISCID=2b0a2515
DTITLE=Buck Owens - Young Buck (The Complete Pre-Capitol Recordings)
DYEAR=2001
DGENRE=Country
TTITLE0=It Don't Show On Me
TTITLE1=Down On The Corner Of Love
TTITLE2=The House Down The Block
TTITLE3=Right After The Dance
TTITLE4=Hot Dog
TTITLE5=Rhythm And Booze
TTITLE6=There Goes My Love
TTITLE7=Sweethearts In Heaven
TTITLE8=Honeysuckle
TTITLE9=Country Girl (Leavin' Dirty Tracks)
TTITLE10=You're Fer Me
TTITLE11=Blue Love
TTITLE12=Please Don't Take Her From Me
TTITLE13=Three Dimension Love
TTITLE14=Why Don't My Mommy Stay With My Daddy And Me
TTITLE15=I'm Gonna Blow
TTITLE16=It Don't Show On Me (alt)
TTITLE17=Down On The Corner Of Love (alt)
TTITLE18=The House Down The Block (Alt)
TTITLE19=Right After The Dance (alt)
TTITLE20=Blue Love (With Studio Chatter)
EXTD=
EXTT0=
EXTT1=
EXTT2=
EXTT3=
EXTT4=
EXTT5=
EXTT6=
EXTT7=
EXTT8=
EXTT9=
EXTT10=
EXTT11=
EXTT12=
EXTT13=
EXTT14=
EXTT15=
EXTT16=
EXTT17=
EXTT18=
EXTT19=
EXTT20=
PLAYORDER=
